<svg xmlns="http://www.w3.org/2000/svg" viewBox="0 0 512 512">
  <defs>
    <linearGradient id="bg" x1="0%" y1="0%" x2="100%" y2="100%">
      <stop offset="0%" style="stop-color:#0f172a"/>
      <stop offset="100%" style="stop-color:#1e3a5f"/>
    </linearGradient>
    <linearGradient id="accent" x1="0%" y1="0%" x2="100%" y2="100%">
      <stop offset="0%" style="stop-color:#38bdf8"/>
      <stop offset="100%" style="stop-color:#818cf8"/>
    </linearGradient>
  </defs>
  <rect width="512" height="512" rx="96" fill="url(#bg)"/>
  <!-- M letter stylized -->
  <path d="M128 380V160l72 110 72-110v220" stroke="url(#accent)" stroke-width="32" fill="none" stroke-linecap="round" stroke-linejoin="round"/>
  <!-- Signal waves -->
  <path d="M320 210 a60 60 0 0 1 0 92" stroke="#38bdf8" stroke-width="20" fill="none" stroke-linecap="round" opacity="0.9"/>
  <path d="M350 180 a100 100 0 0 1 0 152" stroke="#38bdf8" stroke-width="16" fill="none" stroke-linecap="round" opacity="0.6"/>
  <path d="M376 154 a136 136 0 0 1 0 204" stroke="#38bdf8" stroke-width="12" fill="none" stroke-linecap="round" opacity="0.35"/>
  <!-- Small chart bars at bottom -->
  <rect x="320" y="340" width="20" height="40" rx="4" fill="#38bdf8" opacity="0.5"/>
  <rect x="350" y="320" width="20" height="60" rx="4" fill="#38bdf8" opacity="0.65"/>
  <rect x="380" y="300" width="20" height="80" rx="4" fill="#818cf8" opacity="0.8"/>
</svg>
